<svg viewBox="0 0 40 40" fill="none" xmlns="http://www.w3.org/2000/svg">
<rect width="40" height="40" rx="4" fill="white"/>
<path d="M29.7207 14.2798V15.4498C29.7207 16.4298 29.3307 17.2698 28.6407 17.7598C28.2107 18.0798 27.6807 18.2298 27.1307 18.2298C26.7907 18.2298 26.4507 18.1798 26.1007 18.0598L20.7207 16.2698V25.9998C20.7207 28.6198 18.5907 30.7498 15.9707 30.7498C13.3507 30.7498 11.2207 28.6198 11.2207 25.9998C11.2207 23.3798 13.3507 21.2498 15.9707 21.2498C17.2307 21.2498 18.3707 21.7498 19.2207 22.5498V11.9998C19.2207 11.0298 19.6207 10.1898 20.3107 9.68977C21.0007 9.19977 21.9207 9.08977 22.8407 9.38977L27.2607 10.8698C28.6207 11.3198 29.7207 12.8498 29.7207 14.2798Z" fill="#DE8E0E"/>
</svg>
