<svg width="62" height="32" viewBox="0 0 62 32" fill="none" xmlns="http://www.w3.org/2000/svg">
<path d="M0 8.62249L2.5428 8.03585L4.64847 16.7447L10.1579 15.4737L10.6472 17.4976L2.59501 19.3553L0 8.62249Z" fill="#343434"/>
<path d="M9.90087 8.96073L12.3495 8.39581L14.3439 16.6447L11.8953 17.2096L9.90087 8.96073ZM10.8472 7.52833C10.3972 7.63214 10 7.58886 9.65573 7.3985C9.31141 7.20814 9.09353 6.92386 9.00209 6.54566C8.91064 6.16745 8.9753 5.81799 9.19604 5.49727C9.41679 5.17654 9.75215 4.96427 10.2021 4.86047C10.6521 4.75666 11.048 4.79482 11.3898 4.97496C11.7317 5.1551 11.9471 5.42916 12.0361 5.79714C12.1324 6.19579 12.0715 6.56058 11.8532 6.89153C11.6325 7.21225 11.2971 7.42452 10.8472 7.52833Z" fill="#343434"/>
<path d="M19.4872 15.5877C18.7861 15.7494 18.0809 15.8258 17.3716 15.8167C16.6599 15.7975 16.0743 15.7059 15.6149 15.5421L16.0159 13.6366C16.4495 13.7848 16.9516 13.874 17.5224 13.9042C18.0906 13.9241 18.6312 13.875 19.1439 13.7567C20.1799 13.5177 20.6373 13.1478 20.5162 12.6469C20.4593 12.4118 20.2773 12.2757 19.9701 12.2387C19.6628 12.2017 19.2075 12.215 18.6042 12.2786C17.8889 12.3357 17.2902 12.3497 16.8081 12.3207C16.326 12.2916 15.8767 12.147 15.4603 11.887C15.0544 11.6245 14.776 11.1815 14.6253 10.558C14.4992 10.0367 14.5397 9.54167 14.7468 9.07301C14.9619 8.59172 15.3352 8.17104 15.8669 7.81097C16.4089 7.44848 17.0829 7.1743 17.8886 6.98841C18.4851 6.8508 19.0924 6.78084 19.7105 6.77853C20.3366 6.76358 20.8704 6.82389 21.312 6.95944L20.9073 8.84966C20.0654 8.6122 19.205 8.59486 18.326 8.79765C17.8028 8.91836 17.4277 9.08044 17.2007 9.2839C16.9737 9.48735 16.8874 9.70152 16.9418 9.9264C17.0036 10.1819 17.1881 10.3282 17.4953 10.3653C17.8026 10.4023 18.276 10.3956 18.9156 10.3452C19.6335 10.2983 20.2282 10.2906 20.6998 10.322C21.169 10.3433 21.6065 10.4852 22.0125 10.7477C22.4184 11.0101 22.6943 11.4429 22.8401 12.046C22.9637 12.5571 22.9167 13.0482 22.6992 13.5192C22.4816 13.9903 22.0966 14.4083 21.544 14.7732C20.9995 15.1254 20.3138 15.3969 19.4872 15.5877Z" fill="#343434"/>
<path d="M26.3372 5.03928C27.6452 4.73751 28.7239 4.8124 29.5733 5.26396C30.4202 5.70529 30.9919 6.53925 31.2885 7.76586L32.4266 12.4729L30.1349 13.0016L29.8866 11.9744C29.6115 12.8472 28.8461 13.4285 27.5904 13.7182C26.9416 13.8679 26.3506 13.8909 25.8173 13.7873C25.2946 13.6813 24.8619 13.4681 24.5193 13.1479C24.1767 12.8276 23.9473 12.4273 23.8312 11.9469C23.6458 11.1802 23.793 10.5096 24.2727 9.93482C24.7629 9.35769 25.6254 8.92668 26.8602 8.64181L28.8065 8.19278C28.6805 7.67147 28.4219 7.31024 28.0308 7.1091C27.6372 6.89773 27.116 6.86688 26.4672 7.01656C26.0173 7.12037 25.5898 7.29452 25.1849 7.53902C24.788 7.77088 24.4663 8.03937 24.2196 8.34448L22.9366 6.87602C23.3204 6.45293 23.8104 6.08086 24.4067 5.75983C25.0135 5.43638 25.657 5.1962 26.3372 5.03928ZM27.8133 11.967C28.2319 11.8705 28.5811 11.6928 28.861 11.434C29.1384 11.1649 29.3007 10.8307 29.3478 10.4313L29.1439 9.58804L27.4644 9.97551C26.4598 10.2073 26.0354 10.6451 26.1911 11.2891C26.2652 11.5958 26.4449 11.8133 26.73 11.9418C27.0232 12.0576 27.3843 12.066 27.8133 11.967Z" fill="#343434"/>
<path d="M43.3045 10.1576L41.6968 9.26585C40.8432 10.3046 39.7153 10.9857 38.3131 11.3092C37.5178 11.4926 36.7713 11.5353 36.0737 11.4373C35.3736 11.329 34.786 11.0922 34.3111 10.727C33.8465 10.3593 33.5463 9.89438 33.4104 9.33218C33.2497 8.66777 33.2972 8.04168 33.5528 7.45391C33.8164 6.8535 34.3164 6.22553 35.0528 5.57001C34.5588 5.2631 34.1796 4.95129 33.9152 4.63457C33.6483 4.30763 33.4679 3.94995 33.374 3.56152C33.248 3.04022 33.278 2.54765 33.4642 2.08382C33.6503 1.61999 33.9738 1.2216 34.4347 0.888655C34.9035 0.543069 35.478 0.291817 36.1582 0.134897C37.1104 -0.0847914 37.9287 -0.0361472 38.613 0.280829C39.2948 0.587583 39.7271 1.11916 39.91 1.87557C40.0435 2.42754 39.9894 2.95802 39.7479 3.46699C39.5168 3.97356 39.0728 4.51307 38.4158 5.08554L40.866 6.44659C40.9881 5.90043 41.0365 5.3011 41.0113 4.6486L43.118 4.79392C43.1385 5.79282 43.0001 6.6827 42.7028 7.46355L44.2717 8.33188L43.3045 10.1576ZM36.5511 1.76015C36.1849 1.84464 35.9141 2.00423 35.7389 2.23892C35.5741 2.4712 35.5263 2.73044 35.5955 3.01664C35.6474 3.2313 35.7544 3.42246 35.9164 3.59011C36.076 3.74755 36.3615 3.94607 36.773 4.18569C37.24 3.78659 37.5521 3.45556 37.7095 3.19262C37.8644 2.91946 37.911 2.65511 37.8492 2.39957C37.7849 2.13381 37.6389 1.94088 37.411 1.82078C37.1831 1.70069 36.8965 1.68048 36.5511 1.76015ZM38.0335 9.39876C38.7973 9.22253 39.4321 8.85485 39.9377 8.29574L36.6993 6.48519C36.2742 6.87464 35.9891 7.22639 35.8441 7.54044C35.6991 7.85448 35.6673 8.18017 35.7489 8.51748C35.8453 8.91613 36.101 9.19707 36.5161 9.36031C36.9312 9.52355 37.437 9.53637 38.0335 9.39876Z" fill="#343434"/>
<path d="M7.75361 31.8492C7.01065 32.0206 6.29311 32.0459 5.601 31.925C4.91689 31.7914 4.31546 31.5201 3.79672 31.111L4.80901 29.1291C5.59577 29.7786 6.3711 30.0152 7.13499 29.839C8.17094 29.6 8.54558 28.8876 8.25889 27.7019L7.02441 22.5962L3.16312 23.487L2.68119 21.4938L9.06959 20.0199L10.7526 26.9809C11.0715 28.2995 10.9763 29.3683 10.4673 30.1872C9.95572 30.9959 9.05117 31.5499 7.75361 31.8492Z" fill="#343434"/>
<path d="M18.0515 29.4087C17.1621 29.6139 16.3183 29.6197 15.5202 29.4261C14.7301 29.2199 14.0584 28.8407 13.5051 28.2884C12.9518 27.7362 12.5762 27.0512 12.3785 26.2335C12.1808 25.4157 12.2029 24.639 12.4449 23.9033C12.6868 23.1676 13.1151 22.54 13.7297 22.0205C14.3523 21.4884 15.1083 21.1197 15.9977 20.9145C16.8872 20.7093 17.727 20.7098 18.517 20.916C19.3046 21.112 19.9751 21.4862 20.5285 22.0384C21.0818 22.5906 21.4573 23.2756 21.655 24.0933C21.8528 24.9111 21.8306 25.6878 21.5887 26.4235C21.3468 27.1592 20.9197 27.7919 20.3076 28.3216C19.693 28.8411 18.941 29.2035 18.0515 29.4087ZM17.577 27.4461C18.2048 27.3013 18.6682 26.9786 18.9669 26.478C19.2737 25.9647 19.3431 25.3606 19.175 24.6655C19.007 23.9704 18.6695 23.4655 18.1625 23.1508C17.6635 22.8234 17.1001 22.7322 16.4723 22.877C15.8444 23.0219 15.3771 23.3509 15.0703 23.8642C14.7611 24.3672 14.6905 24.9662 14.8585 25.6613C15.0266 26.3564 15.3653 26.8664 15.8748 27.1913C16.3817 27.5061 16.9491 27.591 17.577 27.4461Z" fill="#343434"/>
<path d="M27.1597 27.3074C26.4586 27.4692 25.7534 27.5455 25.0441 27.5365C24.3324 27.5172 23.7468 27.4257 23.2874 27.2619L23.6884 25.3563C24.122 25.5045 24.6241 25.5937 25.1949 25.6239C25.7631 25.6439 26.3037 25.5947 26.8164 25.4764C27.8524 25.2374 28.3098 24.8675 28.1887 24.3666C28.1318 24.1315 27.9498 23.9955 27.6425 23.9584C27.3353 23.9214 26.88 23.9347 26.2767 23.9983C25.5614 24.0555 24.9627 24.0695 24.4806 24.0404C23.9985 24.0113 23.5492 23.8668 23.1328 23.6067C22.7269 23.3442 22.4485 22.9012 22.2978 22.2777C22.1717 21.7564 22.2122 21.2614 22.4193 20.7928C22.6344 20.3115 23.0077 19.8908 23.5394 19.5307C24.0814 19.1682 24.7554 18.894 25.5611 18.7082C26.1576 18.5705 26.7649 18.5006 27.383 18.4983C28.0091 18.4833 28.5429 18.5436 28.9845 18.6792L28.5798 20.5694C27.7379 20.3319 26.8775 20.3146 25.9985 20.5174C25.4753 20.6381 25.1002 20.8002 24.8732 21.0036C24.6462 21.2071 24.5599 21.4213 24.6143 21.6461C24.6761 21.9017 24.8606 22.048 25.1678 22.085C25.4751 22.122 25.9485 22.1153 26.5881 22.0649C27.306 22.018 27.9007 22.0103 28.3723 22.0418C28.8415 22.0631 29.279 22.2049 29.685 22.4674C30.0909 22.7299 30.3668 23.1627 30.5126 23.7657C30.6362 24.2768 30.5892 24.7679 30.3717 25.239C30.1541 25.71 29.7691 26.128 29.2165 26.4929C28.672 26.8452 27.9863 27.1167 27.1597 27.3074Z" fill="#343434"/>
<path d="M39.9098 19.9142C39.9172 19.9449 39.9534 20.1632 40.0184 20.5691L33.63 22.0429C33.8687 22.5274 34.2384 22.8684 34.7391 23.0659C35.2398 23.2633 35.8093 23.2884 36.4476 23.1411C36.8871 23.0397 37.2595 22.8891 37.5647 22.6892C37.8778 22.4766 38.1476 22.1986 38.3738 21.855L40.0103 22.9344C39.43 24.0071 38.376 24.7197 36.8482 25.0722C35.896 25.2919 35.0104 25.3073 34.1914 25.1186C33.3699 24.9196 32.6825 24.544 32.1292 23.9917C31.5758 23.4395 31.2003 22.7545 31.0026 21.9368C30.8073 21.1293 30.8254 20.3589 31.0569 19.6256C31.2964 18.8797 31.713 18.2494 32.3066 17.7347C32.9083 17.2074 33.6329 16.8459 34.4805 16.6504C35.3072 16.4597 36.0974 16.4608 36.8512 16.6539C37.6049 16.8469 38.2492 17.227 38.7841 17.7943C39.327 18.349 39.7022 19.0556 39.9098 19.9142ZM34.9337 18.456C34.3791 18.584 33.9505 18.8447 33.6479 19.2383C33.3453 19.6318 33.2165 20.104 33.2613 20.6549L37.4208 19.6953C37.211 19.1933 36.8807 18.8324 36.4299 18.6126C35.9765 18.3827 35.4778 18.3305 34.9337 18.456Z" fill="#343434"/>
<path d="M45.4971 14.1088C46.282 13.9277 47.0368 13.9424 47.7616 14.1529C48.4944 14.3508 49.1218 14.7295 49.6437 15.2889C50.1632 15.8382 50.5255 16.537 50.7306 17.3854C50.9358 18.2338 50.9331 19.0223 50.7225 19.7507C50.5095 20.469 50.1218 21.0818 49.5596 21.5892C49.0053 22.084 48.3357 22.422 47.5509 22.603C46.4731 22.8517 45.5452 22.715 44.7671 22.193L45.6976 26.0415L43.249 26.6064L40.5354 15.383L42.8741 14.8434L43.104 15.7941C43.5379 14.9385 44.3356 14.3768 45.4971 14.1088ZM46.6526 20.7382C47.2804 20.5934 47.7438 20.2707 48.0425 19.7701C48.3493 19.2568 48.4187 18.6526 48.2506 17.9576C48.0826 17.2625 47.7451 16.7576 47.2381 16.4429C46.7391 16.1155 46.1757 16.0243 45.5479 16.1691C44.92 16.314 44.4527 16.643 44.1459 17.1563C43.8471 17.6569 43.7818 18.2547 43.9498 18.9498C44.1179 19.6449 44.4514 20.1561 44.9504 20.4834C45.4573 20.7981 46.0247 20.8831 46.6526 20.7382Z" fill="#343434"/>
<path d="M56.4756 11.576C57.522 11.3346 58.4386 11.4469 59.2252 11.9129C60.0222 12.3766 60.5666 13.2114 60.8582 14.4176L62 19.14L59.5514 19.7049L58.4985 15.3505C58.3404 14.6963 58.0765 14.2446 57.7069 13.9953C57.3348 13.7358 56.8714 13.67 56.3168 13.798C55.6994 13.9404 55.2534 14.243 54.9785 14.7057C54.7013 15.1582 54.6516 15.7524 54.8296 16.4883L55.8157 20.5668L53.367 21.1317L50.6163 9.75496L53.0649 9.19005L54.0288 13.1765C54.2766 12.7848 54.6109 12.4541 55.0318 12.1843C55.4502 11.9043 55.9315 11.7015 56.4756 11.576Z" fill="#343434"/>
</svg>
